<?xml version="1.0"?>
<svg xmlns="http://www.w3.org/2000/svg" xmlns:xlink="http://www.w3.org/1999/xlink" xmlns:svgjs="http://svgjs.com/svgjs" version="1.1" width="512" height="512" x="0" y="0" viewBox="0 0 511.983 511.983" style="enable-background:new 0 0 512 512" xml:space="preserve" class=""><g><g xmlns="http://www.w3.org/2000/svg"><circle cx="436.983" cy="437.002" r="7.5" fill="#f7f7f7" data-original="#000000" style="" class=""/><circle cx="466.983" cy="467.002" r="7.5" fill="#f7f7f7" data-original="#000000" style="" class=""/><circle cx="74.983" cy="437.002" r="7.5" fill="#f7f7f7" data-original="#000000" style="" class=""/><circle cx="44.983" cy="467.002" r="7.5" fill="#f7f7f7" data-original="#000000" style="" class=""/><path d="m42.786 95.838c-2.929-2.929-7.678-2.929-10.607 0s-2.929 7.678 0 10.607l63.64 63.64c2.929 2.929 7.678 2.929 10.607 0s2.929-7.678 0-10.607z" fill="#f7f7f7" data-original="#000000" style="" class=""/><path d="m63.999 74.625c-2.929-2.929-7.678-2.929-10.607 0s-2.929 7.678 0 10.607l63.64 63.64c2.929 2.929 7.678 2.929 10.607 0s2.929-7.678 0-10.607z" fill="#f7f7f7" data-original="#000000" style="" class=""/><path d="m85.212 53.412c-2.929-2.929-7.678-2.929-10.607 0s-2.929 7.678 0 10.607l63.64 63.64c2.929 2.929 7.678 2.929 10.607 0s2.929-7.678 0-10.607z" fill="#f7f7f7" data-original="#000000" style="" class=""/><path d="m106.425 32.199c-2.929-2.929-7.678-2.929-10.607 0s-2.929 7.678 0 10.607l63.64 63.64c2.929 2.929 7.678 2.929 10.607 0s2.929-7.678 0-10.607z" fill="#f7f7f7" data-original="#000000" style="" class=""/><path d="m362.049 298.428c-1.147-1.147-2.636-1.892-4.243-2.122l-34.648-4.95-19.446-19.445c-2.929-2.93-7.678-2.929-10.606 0-2.929 2.929-2.929 7.678 0 10.606l15.91 15.91-10.607 10.607-31.82-31.82 81.51-81.51c25.597 12.262 56.442 7.197 76.834-13.195l84.853-84.853c2.929-2.929 2.929-7.678 0-10.607-14.621-14.621-38.412-14.621-53.033 0l-58.336 58.336-31.82-31.82 58.336-58.336c14.621-14.621 14.621-38.412 0-53.033-2.929-2.929-7.678-2.929-10.607 0l-84.853 84.853c-20.392 20.392-25.457 51.237-13.195 76.834l-60.296 60.296-50.994-50.994c17.802-31.854 12.455-72.398-13.711-98.563l-63.64-63.64c-14.621-14.621-38.412-14.621-53.033 0l-63.64 63.64c-14.621 14.621-14.621 38.412 0 53.033l63.64 63.64c26.166 26.166 66.709 31.513 98.563 13.711l50.994 50.994-35.355 35.355-34.648 4.95c-1.607.23-3.095.974-4.243 2.121l-136.752 136.756c-17.545 17.545-17.545 46.094 0 63.64 17.545 17.545 46.094 17.545 63.64 0l136.754-136.754c1.147-1.147 1.892-2.636 2.121-4.243l4.95-34.648 35.355-35.355 35.355 35.355 4.95 34.648c.229 1.606.974 3.095 2.122 4.243l136.754 136.754c8.772 8.772 20.296 13.159 31.819 13.159 11.524 0 23.047-4.387 31.82-13.159 17.545-17.546 17.545-46.094 0-63.64zm-182.44-108.193c-2.522-2.522-6.472-2.919-9.445-.949-26.613 17.631-62.34 14.016-84.951-8.595l-63.64-63.64c-8.773-8.773-8.773-23.047 0-31.82l63.64-63.64c8.773-8.773 23.047-8.773 31.82 0l63.64 63.64c22.611 22.611 26.226 58.338 8.595 84.951-1.97 2.973-1.573 6.923.949 9.445l55.161 55.161-10.607 10.607zm-113.413 297.98c-11.697 11.697-30.729 11.697-42.426 0s-11.697-30.729 0-42.426l131.45-131.45 42.426 42.426zm136.754-147.36-31.82-31.82 18.562-2.652 15.91 15.91zm10.606-31.82-10.607-10.607 127.861-127.861c2.42-2.42 2.895-6.171 1.155-9.117-12.172-20.61-8.835-46.842 8.115-63.792l78.641-78.641c3.985 8.362 2.52 18.693-4.395 25.608l-63.64 63.64c-2.929 2.929-2.929 7.678 0 10.607l42.426 42.426c2.929 2.929 7.678 2.929 10.607 0l63.64-63.64c6.914-6.914 17.246-8.379 25.608-4.395l-78.641 78.641c-16.95 16.95-43.183 20.287-63.792 8.115-2.947-1.74-6.697-1.265-9.117 1.155zm92.808 13.258 15.91-15.91 18.561 2.652-31.82 31.82zm181.832 165.922c-11.697 11.697-30.73 11.697-42.427 0l-131.45-131.451 42.426-42.426 131.451 131.45c11.697 11.697 11.697 30.73 0 42.427z" fill="#f7f7f7" data-original="#000000" style="" class=""/></g></g></svg>
